<svg xmlns="http://www.w3.org/2000/svg" width="24.609" height="21.599" viewBox="0 0 24.609 21.599">
  <g id="icon-cart" transform="translate(1 1)">
    <path id="Path_62" data-name="Path 62" d="M15.683,31.841A1.841,1.841,0,1,1,13.841,30,1.841,1.841,0,0,1,15.683,31.841Z" transform="translate(-4.672 -14.084)" fill="none" stroke="#0a3641" stroke-linecap="round" stroke-linejoin="round" stroke-width="2"/>
    <path id="Path_63" data-name="Path 63" d="M32.183,31.841A1.841,1.841,0,1,1,30.341,30,1.841,1.841,0,0,1,32.183,31.841Z" transform="translate(-11.459 -14.084)" fill="none" stroke="#0a3641" stroke-linecap="round" stroke-linejoin="round" stroke-width="2"/>
    <path id="Path_64" data-name="Path 64" d="M1.5,1.5H5.611L8.365,13.09a2.007,2.007,0,0,0,2.055,1.394H20.41a2.007,2.007,0,0,0,2.055-1.394l1.644-7.262H6.638" transform="translate(-1.5 -1.5)" fill="none" stroke="#0a3641" stroke-linecap="round" stroke-linejoin="round" stroke-width="2"/>
  </g>
</svg>
