<svg xmlns="http://www.w3.org/2000/svg" width="18.4" height="17.764" viewBox="0 0 18.4 17.764">
  <g id="icon-heart-procuct-page" transform="translate(1 1)">
    <path id="Icon_ionic-ios-heart" data-name="Icon ionic-ios-heart" d="M15.359,3.938H15.32a4.5,4.5,0,0,0-3.745,2.02A4.5,4.5,0,0,0,7.83,3.938H7.79a4.424,4.424,0,0,0-4.415,4.39,9.368,9.368,0,0,0,1.884,5.155,32.834,32.834,0,0,0,6.315,5.994,32.834,32.834,0,0,0,6.315-5.994,9.368,9.368,0,0,0,1.884-5.155A4.424,4.424,0,0,0,15.359,3.938Z" transform="translate(-3.375 -3.938)" fill="none" stroke="#0a3641" stroke-width="2"/>
  </g>
</svg>
