<svg xmlns="http://www.w3.org/2000/svg" width="24.4" height="23.77" viewBox="0 0 24.4 23.77">
  <g id="icon-like" transform="translate(1 1)">
    <path id="Icon_ionic-ios-heart" data-name="Icon ionic-ios-heart" d="M19.744,3.938H19.69a6.127,6.127,0,0,0-5.115,2.8,6.127,6.127,0,0,0-5.115-2.8H9.406a6.088,6.088,0,0,0-6.031,6.085,13.107,13.107,0,0,0,2.574,7.145,45.1,45.1,0,0,0,8.626,8.308A45.1,45.1,0,0,0,23.2,17.167a13.107,13.107,0,0,0,2.574-7.145A6.088,6.088,0,0,0,19.744,3.938Z" transform="translate(-3.375 -3.938)" fill="none" stroke="#0a3641" stroke-width="2"/>
  </g>
</svg>
