<svg xmlns="http://www.w3.org/2000/svg" xmlns:xlink="http://www.w3.org/1999/xlink" width="100" height="14" viewBox="0 0 100 14">
  <defs>
    <clipPath id="clip-path">
      <rect width="85" height="14" fill="none"/>
    </clipPath>
    <clipPath id="clip-path-2">
      <rect width="72" height="14" fill="none"/>
    </clipPath>
  </defs>
  <g id="Group_624" data-name="Group 624" transform="translate(-555 -1732)">
    <g id="Group_527" data-name="Group 527" transform="translate(42 252)">
      <g id="Repeat_Grid_2" data-name="Repeat Grid 2" transform="translate(513 1480)" clip-path="url(#clip-path)">
        <g transform="translate(-507 -1480)">
          <path id="Polygon_1" data-name="Polygon 1" d="M6.589,2.011a1,1,0,0,1,1.822,0L9.438,4.278a1,1,0,0,0,.809.582l2.481.255a1,1,0,0,1,.56,1.745L11.459,8.473a1,1,0,0,0-.315.962l.517,2.38A1,1,0,0,1,10.19,12.9l-2.2-1.246a1,1,0,0,0-.987,0L4.81,12.9a1,1,0,0,1-1.471-1.082l.517-2.38a1,1,0,0,0-.315-.962L1.712,6.859a1,1,0,0,1,.56-1.745L4.753,4.86a1,1,0,0,0,.809-.582Z" transform="translate(507 1480)" fill="rgba(238,156,71,0.41)"/>
        </g>
        <g transform="translate(-491 -1480)">
          <path id="Polygon_1-2" data-name="Polygon 1" d="M6.589,2.011a1,1,0,0,1,1.822,0L9.438,4.278a1,1,0,0,0,.809.582l2.481.255a1,1,0,0,1,.56,1.745L11.459,8.473a1,1,0,0,0-.315.962l.517,2.38A1,1,0,0,1,10.19,12.9l-2.2-1.246a1,1,0,0,0-.987,0L4.81,12.9a1,1,0,0,1-1.471-1.082l.517-2.38a1,1,0,0,0-.315-.962L1.712,6.859a1,1,0,0,1,.56-1.745L4.753,4.86a1,1,0,0,0,.809-.582Z" transform="translate(507 1480)" fill="rgba(238,156,71,0.41)"/>
        </g>
        <g transform="translate(-475 -1480)">
          <path id="Polygon_1-3" data-name="Polygon 1" d="M6.589,2.011a1,1,0,0,1,1.822,0L9.438,4.278a1,1,0,0,0,.809.582l2.481.255a1,1,0,0,1,.56,1.745L11.459,8.473a1,1,0,0,0-.315.962l.517,2.38A1,1,0,0,1,10.19,12.9l-2.2-1.246a1,1,0,0,0-.987,0L4.81,12.9a1,1,0,0,1-1.471-1.082l.517-2.38a1,1,0,0,0-.315-.962L1.712,6.859a1,1,0,0,1,.56-1.745L4.753,4.86a1,1,0,0,0,.809-.582Z" transform="translate(507 1480)" fill="rgba(238,156,71,0.41)"/>
        </g>
        <g transform="translate(-459 -1480)">
          <path id="Polygon_1-4" data-name="Polygon 1" d="M6.589,2.011a1,1,0,0,1,1.822,0L9.438,4.278a1,1,0,0,0,.809.582l2.481.255a1,1,0,0,1,.56,1.745L11.459,8.473a1,1,0,0,0-.315.962l.517,2.38A1,1,0,0,1,10.19,12.9l-2.2-1.246a1,1,0,0,0-.987,0L4.81,12.9a1,1,0,0,1-1.471-1.082l.517-2.38a1,1,0,0,0-.315-.962L1.712,6.859a1,1,0,0,1,.56-1.745L4.753,4.86a1,1,0,0,0,.809-.582Z" transform="translate(507 1480)" fill="rgba(238,156,71,0.41)"/>
        </g>
        <g transform="translate(-443 -1480)">
          <path id="Polygon_1-5" data-name="Polygon 1" d="M6.589,2.011a1,1,0,0,1,1.822,0L9.438,4.278a1,1,0,0,0,.809.582l2.481.255a1,1,0,0,1,.56,1.745L11.459,8.473a1,1,0,0,0-.315.962l.517,2.38A1,1,0,0,1,10.19,12.9l-2.2-1.246a1,1,0,0,0-.987,0L4.81,12.9a1,1,0,0,1-1.471-1.082l.517-2.38a1,1,0,0,0-.315-.962L1.712,6.859a1,1,0,0,1,.56-1.745L4.753,4.86a1,1,0,0,0,.809-.582Z" transform="translate(507 1480)" fill="rgba(238,156,71,0.41)"/>
        </g>
      </g>
      <g id="Repeat_Grid_3" data-name="Repeat Grid 3" transform="translate(513 1480)" clip-path="url(#clip-path-2)">
        <g transform="translate(-507 -1480)">
          <path id="Polygon_1-6" data-name="Polygon 1" d="M6.589,2.011a1,1,0,0,1,1.822,0L9.438,4.278a1,1,0,0,0,.809.582l2.481.255a1,1,0,0,1,.56,1.745L11.459,8.473a1,1,0,0,0-.315.962l.517,2.38A1,1,0,0,1,10.19,12.9l-2.2-1.246a1,1,0,0,0-.987,0L4.81,12.9a1,1,0,0,1-1.471-1.082l.517-2.38a1,1,0,0,0-.315-.962L1.712,6.859a1,1,0,0,1,.56-1.745L4.753,4.86a1,1,0,0,0,.809-.582Z" transform="translate(507 1480)" fill="#ee9c47"/>
        </g>
        <g transform="translate(-491 -1480)">
          <path id="Polygon_1-7" data-name="Polygon 1" d="M6.589,2.011a1,1,0,0,1,1.822,0L9.438,4.278a1,1,0,0,0,.809.582l2.481.255a1,1,0,0,1,.56,1.745L11.459,8.473a1,1,0,0,0-.315.962l.517,2.38A1,1,0,0,1,10.19,12.9l-2.2-1.246a1,1,0,0,0-.987,0L4.81,12.9a1,1,0,0,1-1.471-1.082l.517-2.38a1,1,0,0,0-.315-.962L1.712,6.859a1,1,0,0,1,.56-1.745L4.753,4.86a1,1,0,0,0,.809-.582Z" transform="translate(507 1480)" fill="#ee9c47"/>
        </g>
        <g transform="translate(-475 -1480)">
          <path id="Polygon_1-8" data-name="Polygon 1" d="M6.589,2.011a1,1,0,0,1,1.822,0L9.438,4.278a1,1,0,0,0,.809.582l2.481.255a1,1,0,0,1,.56,1.745L11.459,8.473a1,1,0,0,0-.315.962l.517,2.38A1,1,0,0,1,10.19,12.9l-2.2-1.246a1,1,0,0,0-.987,0L4.81,12.9a1,1,0,0,1-1.471-1.082l.517-2.38a1,1,0,0,0-.315-.962L1.712,6.859a1,1,0,0,1,.56-1.745L4.753,4.86a1,1,0,0,0,.809-.582Z" transform="translate(507 1480)" fill="#ee9c47"/>
        </g>
        <g transform="translate(-459 -1480)">
          <path id="Polygon_1-9" data-name="Polygon 1" d="M6.589,2.011a1,1,0,0,1,1.822,0L9.438,4.278a1,1,0,0,0,.809.582l2.481.255a1,1,0,0,1,.56,1.745L11.459,8.473a1,1,0,0,0-.315.962l.517,2.38A1,1,0,0,1,10.19,12.9l-2.2-1.246a1,1,0,0,0-.987,0L4.81,12.9a1,1,0,0,1-1.471-1.082l.517-2.38a1,1,0,0,0-.315-.962L1.712,6.859a1,1,0,0,1,.56-1.745L4.753,4.86a1,1,0,0,0,.809-.582Z" transform="translate(507 1480)" fill="#ee9c47"/>
        </g>
        <g transform="translate(-443 -1480)">
          <path id="Polygon_1-10" data-name="Polygon 1" d="M6.589,2.011a1,1,0,0,1,1.822,0L9.438,4.278a1,1,0,0,0,.809.582l2.481.255a1,1,0,0,1,.56,1.745L11.459,8.473a1,1,0,0,0-.315.962l.517,2.38A1,1,0,0,1,10.19,12.9l-2.2-1.246a1,1,0,0,0-.987,0L4.81,12.9a1,1,0,0,1-1.471-1.082l.517-2.38a1,1,0,0,0-.315-.962L1.712,6.859a1,1,0,0,1,.56-1.745L4.753,4.86a1,1,0,0,0,.809-.582Z" transform="translate(507 1480)" fill="#ee9c47"/>
        </g>
      </g>
    </g>
    <text id="_65_" data-name="(65)" transform="translate(636 1743)" fill="#707070" font-size="10" font-family="Inter-Light, Inter" font-weight="300"><tspan x="0" y="0">(65)</tspan></text>
  </g>
</svg>
