<svg xmlns="http://www.w3.org/2000/svg" width="367" height="37" viewBox="0 0 367 37">
  <g id="Group_534" data-name="Group 534" transform="translate(-1155 -255)">
    <path id="Line" d="M0,0H3V170.33H0Z" transform="translate(1338.5 266.305) rotate(90)" fill="#d5d3d3"/>
    <path id="Line-2" data-name="Line" d="M0,0H3V64.583H0Z" transform="translate(1377 266.305) rotate(90)" fill="#d5d3d3"/>
    <path id="Line-3" data-name="Line" d="M0,0H3V98.226H0Z" transform="translate(1491.726 266.305) rotate(90)" fill="#d5d3d3"/>
    <g id="step1" transform="translate(1102 249)">
      <text id="Login_" data-name="Login " transform="translate(68 40)" fill="#4d4f5c" font-size="10" font-family="Helvetica-Bold, Helvetica" font-weight="700"><tspan x="-14.995" y="0">Login </tspan></text>
      <text id="Shipping" transform="translate(172 40)" fill="#d5d3d3" font-size="10" font-family="Helvetica-Bold, Helvetica" font-weight="700"><tspan x="-21.384" y="0">Shipping</tspan></text>
      <ellipse id="Ellipse" cx="11" cy="11.5" rx="11" ry="11.5" transform="translate(55 6)" fill="#ee9c47"/>
      <ellipse id="Ellipse-2" data-name="Ellipse" cx="11" cy="11.5" rx="11" ry="11.5" transform="translate(161 6)" fill="#d5d3d3"/>
      <text id="_2" data-name="2" transform="translate(172 22)" fill="#707070" font-size="13" font-family="SourceSansPro-Bold, Source Sans Pro" font-weight="700"><tspan x="-3.458" y="0">2</tspan></text>
      <text id="_1" data-name="1" transform="translate(66 22)" fill="#fff" font-size="13" font-family="SourceSansPro-Bold, Source Sans Pro" font-weight="700"><tspan x="-3.458" y="0">1</tspan></text>
    </g>
    <g id="step3" transform="translate(1375.873 250)">
      <path id="Ellipse-3" data-name="Ellipse" d="M11,0A11,11,0,1,1,0,11,11,11,0,0,1,11,0Z" transform="translate(-2.873 7)" fill="#d5d3d3"/>
      <text id="Billing" transform="translate(8.127 39)" fill="#d5d3d3" font-size="10" font-family="Helvetica-Bold, Helvetica" font-weight="700"><tspan x="-15.276" y="0">Billing</tspan></text>
      <text id="_3" data-name="3" transform="translate(8.127 22)" fill="#707070" font-size="13" font-family="SourceSansPro-Bold, Source Sans Pro" font-weight="700"><tspan x="-3.458" y="0">3</tspan></text>
    </g>
    <g id="step4" transform="translate(1720 250)">
      <text id="Confirmation" transform="translate(-230 40)" fill="#d5d3d3" font-size="10" font-family="Helvetica-Bold, Helvetica" font-weight="700"><tspan x="-31.108" y="0">Confirmation</tspan></text>
      <circle id="Ellipse-4" data-name="Ellipse" cx="11.5" cy="11.5" r="11.5" transform="translate(-242 7)" fill="#d5d3d3"/>
      <text id="_4" data-name="4" transform="translate(-230 23)" fill="#707070" font-size="13" font-family="SourceSansPro-Bold, Source Sans Pro" font-weight="700"><tspan x="-3.458" y="0">4</tspan></text>
    </g>
  </g>
</svg>
