<svg xmlns="http://www.w3.org/2000/svg" xmlns:xlink="http://www.w3.org/1999/xlink" width="365.692" height="36.124" viewBox="0 0 365.692 36.124">
  <defs>
    <linearGradient id="linear-gradient" x1="0.5" x2="0.5" y2="1" gradientUnits="objectBoundingBox">
      <stop offset="0" stop-color="#ee9c47"/>
      <stop offset="1" stop-color="#8dba7e"/>
    </linearGradient>
  </defs>
  <g id="Group_534" data-name="Group 534" transform="translate(-1155.932 -255)">
    <path id="Line" d="M0,0H3V170.33H0Z" transform="translate(1338.5 266.305) rotate(90)" fill="#8dba7e"/>
    <path id="Line-2" data-name="Line" d="M0,0H3V64.583H0Z" transform="translate(1377 266.305) rotate(90)" fill="#8dba7e"/>
    <path id="Line-3" data-name="Line" d="M0,0H3V98.226H0Z" transform="translate(1491.726 266.305) rotate(90)" fill="url(#linear-gradient)"/>
    <g id="step1" transform="translate(1102 249)">
      <path id="Path_1183" data-name="Path 1183" d="M-14.068,0V-7.273h1.538v6h3.118V0Zm8.111.107A2.774,2.774,0,0,1-7.386-.247a2.388,2.388,0,0,1-.929-.987,3.17,3.17,0,0,1-.327-1.472,3.186,3.186,0,0,1,.327-1.479,2.388,2.388,0,0,1,.929-.987,2.774,2.774,0,0,1,1.429-.353,2.774,2.774,0,0,1,1.429.353,2.388,2.388,0,0,1,.929.987,3.186,3.186,0,0,1,.327,1.479A3.17,3.17,0,0,1-3.6-1.234a2.388,2.388,0,0,1-.929.987A2.774,2.774,0,0,1-5.957.107Zm.007-1.172a.935.935,0,0,0,.629-.215,1.321,1.321,0,0,0,.382-.588,2.577,2.577,0,0,0,.13-.849,2.577,2.577,0,0,0-.13-.849,1.334,1.334,0,0,0-.382-.589.931.931,0,0,0-.629-.217.956.956,0,0,0-.637.217,1.313,1.313,0,0,0-.387.589,2.577,2.577,0,0,0-.13.849,2.577,2.577,0,0,0,.13.849,1.3,1.3,0,0,0,.387.588A.961.961,0,0,0-5.95-1.065ZM.172,2.124a3.552,3.552,0,0,1-1.259-.2,2.131,2.131,0,0,1-.833-.536,1.625,1.625,0,0,1-.4-.749l1.4-.188a.87.87,0,0,0,.2.282A1.052,1.052,0,0,0-.352.952a1.611,1.611,0,0,0,.559.085A1.348,1.348,0,0,0,1.023.8.89.89,0,0,0,1.344.032v-1H1.28a1.438,1.438,0,0,1-.3.43,1.5,1.5,0,0,1-.511.33,1.965,1.965,0,0,1-.746.128A2.219,2.219,0,0,1-1.392-.364a2.009,2.009,0,0,1-.8-.877,3.33,3.33,0,0,1-.3-1.5,3.532,3.532,0,0,1,.3-1.548,2.164,2.164,0,0,1,.8-.93,2.065,2.065,0,0,1,1.1-.309,1.706,1.706,0,0,1,.767.154,1.519,1.519,0,0,1,.5.384,2.117,2.117,0,0,1,.293.449h.057v-.916h1.5V.053A1.864,1.864,0,0,1,2.5,1.195a2.078,2.078,0,0,1-.943.694A3.793,3.793,0,0,1,.172,2.124ZM.2-1.214A1.032,1.032,0,0,0,.824-1.4a1.154,1.154,0,0,0,.391-.526,2.217,2.217,0,0,0,.137-.822,2.331,2.331,0,0,0-.135-.833,1.215,1.215,0,0,0-.391-.549.994.994,0,0,0-.621-.2.987.987,0,0,0-.629.2,1.227,1.227,0,0,0-.387.556,2.357,2.357,0,0,0-.131.82A2.248,2.248,0,0,0-.81-1.93,1.155,1.155,0,0,0-.423-1.4,1.03,1.03,0,0,0,.2-1.214ZM4.047,0V-5.455H5.559V0ZM4.81-6.158a.818.818,0,0,1-.579-.225.715.715,0,0,1-.241-.542.711.711,0,0,1,.241-.538.814.814,0,0,1,.575-.225.817.817,0,0,1,.581.225.714.714,0,0,1,.24.538.717.717,0,0,1-.24.542A.812.812,0,0,1,4.81-6.158Zm3.469,3V0H6.767V-5.455H8.208v.962h.064a1.531,1.531,0,0,1,.607-.755,1.846,1.846,0,0,1,1.033-.279,1.918,1.918,0,0,1,.991.249,1.692,1.692,0,0,1,.657.708,2.386,2.386,0,0,1,.234,1.1V0H10.282V-3.2a1.1,1.1,0,0,0-.256-.783.921.921,0,0,0-.714-.282,1.075,1.075,0,0,0-.538.131.9.9,0,0,0-.362.382A1.325,1.325,0,0,0,8.279-3.153Z" transform="translate(68 40)" fill="#4d4f5c"/>
      <path id="Path_1184" data-name="Path 1184" d="M-17.138-5.181a.9.9,0,0,0-.366-.668,1.45,1.45,0,0,0-.877-.238,1.7,1.7,0,0,0-.636.1.894.894,0,0,0-.4.289.686.686,0,0,0-.137.419.59.59,0,0,0,.083.341.814.814,0,0,0,.25.25,1.788,1.788,0,0,0,.369.181,3.61,3.61,0,0,0,.447.13l.653.156a4.609,4.609,0,0,1,.874.284,2.654,2.654,0,0,1,.689.437,1.836,1.836,0,0,1,.453.611,1.948,1.948,0,0,1,.165.806A2.01,2.01,0,0,1-15.9-.922a2.161,2.161,0,0,1-.966.756A3.87,3.87,0,0,1-18.388.1a3.987,3.987,0,0,1-1.532-.27,2.23,2.23,0,0,1-1.016-.8,2.371,2.371,0,0,1-.382-1.316h1.488a1.1,1.1,0,0,0,.211.609,1.133,1.133,0,0,0,.5.366,1.948,1.948,0,0,0,.712.123,1.856,1.856,0,0,0,.68-.114,1.041,1.041,0,0,0,.449-.316.73.73,0,0,0,.16-.465.609.609,0,0,0-.144-.412,1.123,1.123,0,0,0-.419-.284,4.329,4.329,0,0,0-.673-.213l-.792-.2a3.321,3.321,0,0,1-1.452-.7,1.623,1.623,0,0,1-.529-1.282,1.9,1.9,0,0,1,.353-1.154A2.359,2.359,0,0,1-19.79-7.1a3.472,3.472,0,0,1,1.42-.277,3.373,3.373,0,0,1,1.415.277,2.238,2.238,0,0,1,.943.771,2.039,2.039,0,0,1,.348,1.143Zm4.087,2.028V0h-1.513V-7.273h1.47v2.781h.064a1.554,1.554,0,0,1,.6-.758A1.821,1.821,0,0,1-11.4-5.526a1.939,1.939,0,0,1,.993.247,1.688,1.688,0,0,1,.661.707,2.35,2.35,0,0,1,.233,1.1V0h-1.513V-3.2a1.106,1.106,0,0,0-.254-.785A.927.927,0,0,0-12-4.268a1.1,1.1,0,0,0-.545.131.919.919,0,0,0-.369.382A1.3,1.3,0,0,0-13.05-3.153ZM-8.32,0V-5.455h1.513V0Zm.763-6.158a.818.818,0,0,1-.579-.225.715.715,0,0,1-.241-.542.711.711,0,0,1,.241-.538.814.814,0,0,1,.575-.225.817.817,0,0,1,.581.225.714.714,0,0,1,.24.538.717.717,0,0,1-.24.542A.812.812,0,0,1-7.557-6.158Zm1.957,8.2v-7.5h1.491v.916h.067a2.005,2.005,0,0,1,.289-.449,1.523,1.523,0,0,1,.5-.384,1.694,1.694,0,0,1,.765-.154,2.059,2.059,0,0,1,1.1.311,2.17,2.17,0,0,1,.806.934,3.572,3.572,0,0,1,.3,1.561A3.622,3.622,0,0,1-.574-1.181a2.188,2.188,0,0,1-.8.948A2.042,2.042,0,0,1-2.493.089,1.736,1.736,0,0,1-3.24-.057a1.532,1.532,0,0,1-.5-.368,1.827,1.827,0,0,1-.3-.449h-.046V2.045Zm1.481-4.773a2.428,2.428,0,0,0,.135.849,1.248,1.248,0,0,0,.391.563.976.976,0,0,0,.621.2.97.97,0,0,0,.625-.2,1.26,1.26,0,0,0,.389-.568,2.438,2.438,0,0,0,.133-.84,2.41,2.41,0,0,0-.131-.831,1.238,1.238,0,0,0-.387-.561.981.981,0,0,0-.629-.2.992.992,0,0,0-.623.2,1.219,1.219,0,0,0-.389.554A2.4,2.4,0,0,0-4.119-2.727ZM.724,2.045v-7.5H2.216v.916h.067a2.005,2.005,0,0,1,.289-.449,1.523,1.523,0,0,1,.5-.384,1.694,1.694,0,0,1,.765-.154,2.059,2.059,0,0,1,1.1.311,2.17,2.17,0,0,1,.806.934,3.572,3.572,0,0,1,.3,1.561,3.622,3.622,0,0,1-.293,1.539,2.188,2.188,0,0,1-.8.948A2.042,2.042,0,0,1,3.832.089a1.736,1.736,0,0,1-.748-.146,1.532,1.532,0,0,1-.5-.368,1.827,1.827,0,0,1-.3-.449H2.237V2.045ZM2.205-2.727a2.428,2.428,0,0,0,.135.849,1.248,1.248,0,0,0,.391.563.976.976,0,0,0,.621.2.97.97,0,0,0,.625-.2,1.26,1.26,0,0,0,.389-.568,2.438,2.438,0,0,0,.133-.84,2.41,2.41,0,0,0-.131-.831,1.238,1.238,0,0,0-.387-.561.981.981,0,0,0-.629-.2.992.992,0,0,0-.623.2,1.219,1.219,0,0,0-.389.554A2.4,2.4,0,0,0,2.205-2.727ZM7.049,0V-5.455H8.562V0Zm.763-6.158a.818.818,0,0,1-.579-.225.715.715,0,0,1-.241-.542.711.711,0,0,1,.241-.538.814.814,0,0,1,.575-.225.817.817,0,0,1,.581.225.714.714,0,0,1,.24.538.717.717,0,0,1-.24.542A.812.812,0,0,1,7.813-6.158Zm3.469,3V0H9.769V-5.455h1.442v.962h.064a1.531,1.531,0,0,1,.607-.755,1.846,1.846,0,0,1,1.033-.279,1.918,1.918,0,0,1,.991.249,1.692,1.692,0,0,1,.657.708,2.386,2.386,0,0,1,.234,1.1V0H13.285V-3.2a1.1,1.1,0,0,0-.256-.783.921.921,0,0,0-.714-.282,1.075,1.075,0,0,0-.538.131.9.9,0,0,0-.362.382A1.325,1.325,0,0,0,11.282-3.153Zm7.163,5.277a3.552,3.552,0,0,1-1.259-.2,2.131,2.131,0,0,1-.833-.536,1.625,1.625,0,0,1-.4-.749l1.4-.188a.87.87,0,0,0,.2.282,1.052,1.052,0,0,0,.368.218,1.611,1.611,0,0,0,.559.085A1.348,1.348,0,0,0,19.3.8a.89.89,0,0,0,.321-.771v-1h-.064a1.437,1.437,0,0,1-.3.43,1.5,1.5,0,0,1-.511.33A1.965,1.965,0,0,1,18-.078,2.219,2.219,0,0,1,16.88-.364a2.009,2.009,0,0,1-.8-.877,3.33,3.33,0,0,1-.3-1.5,3.532,3.532,0,0,1,.3-1.548,2.164,2.164,0,0,1,.8-.93,2.065,2.065,0,0,1,1.1-.309,1.706,1.706,0,0,1,.767.154,1.519,1.519,0,0,1,.5.384,2.117,2.117,0,0,1,.293.449h.057v-.916h1.5V.053a1.864,1.864,0,0,1-.341,1.142,2.078,2.078,0,0,1-.943.694A3.793,3.793,0,0,1,18.445,2.124Zm.032-3.338A1.032,1.032,0,0,0,19.1-1.4a1.154,1.154,0,0,0,.391-.526,2.217,2.217,0,0,0,.137-.822,2.331,2.331,0,0,0-.135-.833,1.215,1.215,0,0,0-.391-.549.994.994,0,0,0-.621-.2.987.987,0,0,0-.629.2,1.227,1.227,0,0,0-.387.556,2.357,2.357,0,0,0-.131.82,2.248,2.248,0,0,0,.133.815,1.155,1.155,0,0,0,.387.529A1.03,1.03,0,0,0,18.477-1.214Z" transform="translate(172 40)" fill="#4d4f5c"/>
      <ellipse id="Ellipse" cx="11" cy="11.5" rx="11" ry="11.5" transform="translate(55 6)" fill="#8dba7e"/>
      <path id="Path_293" data-name="Path 293" d="M1187.471,717.879l4.9,4.833,8.407-8.4" transform="translate(-1128 -700.963)" fill="none" stroke="#fff" stroke-width="2"/>
      <ellipse id="Ellipse-2" data-name="Ellipse" cx="11" cy="11.5" rx="11" ry="11.5" transform="translate(161 6)" fill="#8dba7e"/>
      <path id="Path_1099" data-name="Path 1099" d="M1187.471,717.879l4.9,4.833,8.407-8.4" transform="translate(-1022 -700.963)" fill="none" stroke="#fff" stroke-width="2"/>
    </g>
    <g id="step3" transform="translate(1375.873 250)">
      <circle id="Ellipse-3" data-name="Ellipse" cx="11" cy="11" r="11" transform="translate(-2.873 7)" fill="#8dba7e"/>
      <path id="Path_1185" data-name="Path 1185" d="M-14.387,0V-7.273h2.912a3.305,3.305,0,0,1,1.339.238,1.783,1.783,0,0,1,.806.659,1.753,1.753,0,0,1,.27.968,1.572,1.572,0,0,1-.17.748,1.458,1.458,0,0,1-.467.526,1.921,1.921,0,0,1-.676.289v.071A1.639,1.639,0,0,1-9.6-3.54,1.668,1.668,0,0,1-9-2.935a1.8,1.8,0,0,1,.227.925A1.891,1.891,0,0,1-9.062-.978a1.945,1.945,0,0,1-.843.716A3.212,3.212,0,0,1-11.28,0Zm1.538-1.257H-11.6a1.45,1.45,0,0,0,.938-.247.816.816,0,0,0,.295-.659A.977.977,0,0,0-10.51-2.7a.991.991,0,0,0-.414-.362,1.435,1.435,0,0,0-.637-.131H-12.85Zm0-2.972h1.14a1.35,1.35,0,0,0,.563-.112.936.936,0,0,0,.391-.318.84.84,0,0,0,.144-.494.8.8,0,0,0-.279-.636,1.17,1.17,0,0,0-.79-.241H-12.85ZM-7.807,0V-5.455h1.513V0Zm.763-6.158a.818.818,0,0,1-.579-.225.715.715,0,0,1-.241-.542.711.711,0,0,1,.241-.538.814.814,0,0,1,.575-.225.817.817,0,0,1,.581.225.714.714,0,0,1,.24.538.717.717,0,0,1-.24.542A.812.812,0,0,1-7.044-6.158Zm3.469-1.115V0H-5.087V-7.273Zm2.72,0V0H-2.367V-7.273ZM.353,0V-5.455H1.866V0Zm.763-6.158a.818.818,0,0,1-.579-.225A.715.715,0,0,1,.3-6.925a.711.711,0,0,1,.241-.538.814.814,0,0,1,.575-.225.817.817,0,0,1,.581.225.714.714,0,0,1,.24.538.717.717,0,0,1-.24.542A.812.812,0,0,1,1.117-6.158Zm3.469,3V0H3.074V-5.455H4.515v.962h.064a1.531,1.531,0,0,1,.607-.755A1.846,1.846,0,0,1,6.22-5.526a1.918,1.918,0,0,1,.991.249,1.692,1.692,0,0,1,.657.708,2.386,2.386,0,0,1,.234,1.1V0H6.589V-3.2a1.1,1.1,0,0,0-.256-.783.921.921,0,0,0-.714-.282,1.075,1.075,0,0,0-.538.131.9.9,0,0,0-.362.382A1.325,1.325,0,0,0,4.586-3.153Zm7.163,5.277a3.552,3.552,0,0,1-1.259-.2,2.131,2.131,0,0,1-.833-.536,1.625,1.625,0,0,1-.4-.749l1.4-.188a.87.87,0,0,0,.2.282,1.052,1.052,0,0,0,.368.218,1.611,1.611,0,0,0,.559.085A1.348,1.348,0,0,0,12.6.8a.89.89,0,0,0,.321-.771v-1h-.064a1.438,1.438,0,0,1-.3.43,1.5,1.5,0,0,1-.511.33,1.965,1.965,0,0,1-.746.128,2.219,2.219,0,0,1-1.117-.286,2.009,2.009,0,0,1-.8-.877,3.33,3.33,0,0,1-.3-1.5,3.532,3.532,0,0,1,.3-1.548,2.164,2.164,0,0,1,.8-.93,2.065,2.065,0,0,1,1.1-.309,1.706,1.706,0,0,1,.767.154,1.519,1.519,0,0,1,.5.384,2.117,2.117,0,0,1,.293.449h.057v-.916h1.5V.053a1.864,1.864,0,0,1-.341,1.142,2.078,2.078,0,0,1-.943.694A3.793,3.793,0,0,1,11.749,2.124Zm.032-3.338A1.032,1.032,0,0,0,12.4-1.4a1.154,1.154,0,0,0,.391-.526,2.217,2.217,0,0,0,.137-.822,2.331,2.331,0,0,0-.135-.833,1.215,1.215,0,0,0-.391-.549.994.994,0,0,0-.621-.2.987.987,0,0,0-.629.2,1.227,1.227,0,0,0-.387.556,2.357,2.357,0,0,0-.131.82,2.248,2.248,0,0,0,.133.815,1.155,1.155,0,0,0,.387.529A1.03,1.03,0,0,0,11.781-1.214Z" transform="translate(8.127 39)" fill="#4d4f5c"/>
      <path id="Path_1168" data-name="Path 1168" d="M1187.471,717.879l4.9,4.833,8.407-8.4" transform="translate(-1185.873 -700.963)" fill="none" stroke="#fff" stroke-width="2"/>
    </g>
    <g id="step4" transform="translate(1720 250)">
      <path id="Path_1186" data-name="Path 1186" d="M-25.162-4.727h-1.555a1.539,1.539,0,0,0-.174-.538,1.372,1.372,0,0,0-.337-.4,1.488,1.488,0,0,0-.474-.256,1.837,1.837,0,0,0-.581-.089,1.734,1.734,0,0,0-.984.279,1.8,1.8,0,0,0-.65.81,3.221,3.221,0,0,0-.231,1.287,3.247,3.247,0,0,0,.233,1.307,1.76,1.76,0,0,0,.652.8,1.751,1.751,0,0,0,.969.27,1.935,1.935,0,0,0,.574-.082,1.485,1.485,0,0,0,.471-.24,1.372,1.372,0,0,0,.343-.385,1.531,1.531,0,0,0,.19-.518l1.555.007a2.819,2.819,0,0,1-.3.964,2.912,2.912,0,0,1-.643.827,3.008,3.008,0,0,1-.959.575A3.512,3.512,0,0,1-28.319.1a3.422,3.422,0,0,1-1.738-.44,3.111,3.111,0,0,1-1.207-1.275,4.267,4.267,0,0,1-.442-2.021,4.233,4.233,0,0,1,.447-2.024,3.13,3.13,0,0,1,1.214-1.273,3.414,3.414,0,0,1,1.726-.439,3.746,3.746,0,0,1,1.174.178,2.994,2.994,0,0,1,.961.517,2.71,2.71,0,0,1,.684.829A3.106,3.106,0,0,1-25.162-4.727Zm3.54,4.833A2.774,2.774,0,0,1-23.05-.247a2.388,2.388,0,0,1-.929-.987,3.17,3.17,0,0,1-.327-1.472,3.186,3.186,0,0,1,.327-1.479,2.388,2.388,0,0,1,.929-.987,2.774,2.774,0,0,1,1.429-.353,2.774,2.774,0,0,1,1.429.353,2.388,2.388,0,0,1,.929.987,3.186,3.186,0,0,1,.327,1.479,3.17,3.17,0,0,1-.327,1.472,2.388,2.388,0,0,1-.929.987A2.774,2.774,0,0,1-21.621.107Zm.007-1.172a.935.935,0,0,0,.629-.215,1.321,1.321,0,0,0,.382-.588,2.577,2.577,0,0,0,.13-.849,2.577,2.577,0,0,0-.13-.849,1.334,1.334,0,0,0-.382-.589.931.931,0,0,0-.629-.217.956.956,0,0,0-.637.217,1.313,1.313,0,0,0-.387.589,2.577,2.577,0,0,0-.13.849,2.577,2.577,0,0,0,.13.849,1.3,1.3,0,0,0,.387.588A.961.961,0,0,0-21.614-1.065Zm5.178-2.088V0h-1.513V-5.455h1.442v.962h.064a1.531,1.531,0,0,1,.607-.755A1.846,1.846,0,0,1-14.8-5.526a1.918,1.918,0,0,1,.991.249,1.692,1.692,0,0,1,.657.708,2.386,2.386,0,0,1,.234,1.1V0h-1.513V-3.2a1.1,1.1,0,0,0-.256-.783.921.921,0,0,0-.714-.282,1.075,1.075,0,0,0-.538.131.9.9,0,0,0-.362.382A1.325,1.325,0,0,0-16.436-3.153Zm7.638-2.3v1.136h-3.366V-5.455ZM-11.394,0V-5.849a1.9,1.9,0,0,1,.233-.984,1.472,1.472,0,0,1,.637-.586,2.091,2.091,0,0,1,.92-.2,3.531,3.531,0,0,1,.637.053,4.408,4.408,0,0,1,.431.1l-.27,1.136a1.912,1.912,0,0,0-.218-.053,1.4,1.4,0,0,0-.265-.025.586.586,0,0,0-.465.154.646.646,0,0,0-.131.431V0Zm3.519,0V-5.455h1.513V0Zm.763-6.158a.818.818,0,0,1-.579-.225.715.715,0,0,1-.241-.542.711.711,0,0,1,.241-.538.814.814,0,0,1,.575-.225.817.817,0,0,1,.581.225.714.714,0,0,1,.24.538.717.717,0,0,1-.24.542A.812.812,0,0,1-7.111-6.158ZM-5.154,0V-5.455h1.467V-4.5h.057a1.418,1.418,0,0,1,.5-.769,1.322,1.322,0,0,1,.81-.261,2.288,2.288,0,0,1,.245.014,1.725,1.725,0,0,1,.231.039v1.342a1.976,1.976,0,0,0-.295-.057,2.648,2.648,0,0,0-.344-.025,1.212,1.212,0,0,0-.595.144,1.069,1.069,0,0,0-.412.4,1.138,1.138,0,0,0-.151.589V0Zm4.087,0V-5.455H.375v.962H.439a1.513,1.513,0,0,1,.568-.756,1.623,1.623,0,0,1,.952-.277,1.612,1.612,0,0,1,.955.279,1.329,1.329,0,0,1,.526.755H3.5A1.457,1.457,0,0,1,4.1-5.243,1.877,1.877,0,0,1,5.14-5.526a1.666,1.666,0,0,1,1.241.485,1.873,1.873,0,0,1,.478,1.373V0H5.35V-3.37a.893.893,0,0,0-.241-.682.847.847,0,0,0-.6-.227.813.813,0,0,0-.643.261,1,1,0,0,0-.231.687V0H2.164V-3.4a.883.883,0,0,0-.229-.639.8.8,0,0,0-.6-.238.833.833,0,0,0-.453.126A.889.889,0,0,0,.563-3.8a1.128,1.128,0,0,0-.117.527V0ZM9.608.1a2.254,2.254,0,0,1-.93-.183,1.471,1.471,0,0,1-.645-.543,1.61,1.61,0,0,1-.236-.9,1.59,1.59,0,0,1,.167-.763,1.351,1.351,0,0,1,.455-.5,2.2,2.2,0,0,1,.655-.284A4.933,4.933,0,0,1,9.846-3.2q.476-.05.767-.094a1.071,1.071,0,0,0,.423-.133.3.3,0,0,0,.131-.263v-.021a.656.656,0,0,0-.211-.522.881.881,0,0,0-.6-.185,1.066,1.066,0,0,0-.65.179.842.842,0,0,0-.32.449l-1.4-.114a1.914,1.914,0,0,1,.419-.861,2.032,2.032,0,0,1,.808-.561,3.093,3.093,0,0,1,1.149-.2,3.511,3.511,0,0,1,.872.107,2.3,2.3,0,0,1,.742.33,1.616,1.616,0,0,1,.513.574,1.742,1.742,0,0,1,.188.836V0H11.245V-.756H11.2a1.517,1.517,0,0,1-.352.449,1.586,1.586,0,0,1-.529.3A2.154,2.154,0,0,1,9.608.1Zm.433-1.044a1.258,1.258,0,0,0,.589-.133,1.031,1.031,0,0,0,.4-.36.934.934,0,0,0,.146-.515v-.579a.773.773,0,0,1-.194.083q-.123.037-.275.067t-.305.053l-.277.041a1.871,1.871,0,0,0-.465.124.751.751,0,0,0-.309.229.57.57,0,0,0-.11.357.543.543,0,0,0,.225.471A.961.961,0,0,0,10.041-.941Zm6.715-4.513v1.136H13.471V-5.455ZM14.217-6.761H15.73v5.085a.678.678,0,0,0,.064.325.35.35,0,0,0,.179.162.719.719,0,0,0,.268.046,1.179,1.179,0,0,0,.213-.02l.163-.03.238,1.126q-.114.036-.32.083a2.671,2.671,0,0,1-.5.059,2.287,2.287,0,0,1-.957-.146,1.337,1.337,0,0,1-.637-.518,1.585,1.585,0,0,1-.224-.888ZM17.74,0V-5.455h1.513V0ZM18.5-6.158a.818.818,0,0,1-.579-.225.715.715,0,0,1-.241-.542.711.711,0,0,1,.241-.538.814.814,0,0,1,.575-.225.817.817,0,0,1,.581.225.714.714,0,0,1,.24.538.717.717,0,0,1-.24.542A.812.812,0,0,1,18.5-6.158ZM22.924.107A2.774,2.774,0,0,1,21.5-.247a2.388,2.388,0,0,1-.929-.987,3.17,3.17,0,0,1-.327-1.472,3.186,3.186,0,0,1,.327-1.479,2.388,2.388,0,0,1,.929-.987,2.774,2.774,0,0,1,1.429-.353,2.774,2.774,0,0,1,1.429.353,2.388,2.388,0,0,1,.929.987,3.186,3.186,0,0,1,.327,1.479,3.17,3.17,0,0,1-.327,1.472,2.388,2.388,0,0,1-.929.987A2.774,2.774,0,0,1,22.924.107Zm.007-1.172a.935.935,0,0,0,.629-.215,1.321,1.321,0,0,0,.382-.588,2.577,2.577,0,0,0,.13-.849,2.577,2.577,0,0,0-.13-.849,1.334,1.334,0,0,0-.382-.589.931.931,0,0,0-.629-.217.956.956,0,0,0-.637.217,1.313,1.313,0,0,0-.387.589,2.577,2.577,0,0,0-.13.849,2.577,2.577,0,0,0,.13.849,1.3,1.3,0,0,0,.387.588A.961.961,0,0,0,22.931-1.065Zm5.178-2.088V0H26.6V-5.455h1.442v.962H28.1a1.531,1.531,0,0,1,.607-.755,1.846,1.846,0,0,1,1.033-.279,1.918,1.918,0,0,1,.991.249,1.692,1.692,0,0,1,.657.708,2.386,2.386,0,0,1,.234,1.1V0H30.112V-3.2a1.1,1.1,0,0,0-.256-.783.921.921,0,0,0-.714-.282,1.075,1.075,0,0,0-.538.131.9.9,0,0,0-.362.382A1.325,1.325,0,0,0,28.109-3.153Z" transform="translate(-230 40)" fill="#4d4f5c"/>
      <path id="Ellipse-4" data-name="Ellipse" d="M11.5,0A11.5,11.5,0,1,1,0,11.5,11.5,11.5,0,0,1,11.5,0Z" transform="translate(-242 7)" fill="#ee9c47"/>
      <path id="Path_1169" data-name="Path 1169" d="M1187.471,717.879l4.9,4.833,8.407-8.4" transform="translate(-1424 -699.963)" fill="none" stroke="#fff" stroke-width="2"/>
    </g>
  </g>
</svg>
